HIERARCHY
ROOT Hips
{
  OFFSET -178.699 92.7142 1333.98
  CHANNELS 6 Xposition Yposition Zposition Zrotation Xrotation Yrotation
  JOINT Spine
  {
    OFFSET 0 8 0
    CHANNELS 6 Xposition Yposition Zposition Zrotation Xrotation Yrotation
    JOINT Spine1
    {
      OFFSET 0 8 0
      CHANNELS 6 Xposition Yposition Zposition Zrotation Xrotation Yrotation
      JOINT Spine2
      {
        OFFSET 0 8 0
        CHANNELS 6 Xposition Yposition Zposition Zrotation Xrotation Yrotation
        JOINT Spine3
        {
          OFFSET 0 8 0
          CHANNELS 6 Xposition Yposition Zposition Zrotation Xrotation Yrotation
          JOINT Neck
          {
            OFFSET 0 17 0
            CHANNELS 6 Xposition Yposition Zposition Zrotation Xrotation Yrotation
            JOINT Head
            {
              OFFSET 0 10.8 0
              CHANNELS 6 Xposition Yposition Zposition Zrotation Xrotation Yrotation
              End Site
              {
                OFFSET 0 20.25 0
              }
            }
          }
          JOINT LeftShoulder
          {
            OFFSET 5 17 0
            CHANNELS 6 Xposition Yposition Zposition Zrotation Xrotation Yrotation
            JOINT LeftShoulder2
            {
              OFFSET 6.45 0 0
              CHANNELS 6 Xposition Yposition Zposition Zrotation Xrotation Yrotation
              JOINT LeftArm
              {
                OFFSET 6.45 0 0
                CHANNELS 6 Xposition Yposition Zposition Zrotation Xrotation Yrotation
                JOINT LeftForeArm
                {
                  OFFSET 0 -32.4 -2
                  CHANNELS 6 Xposition Yposition Zposition Zrotation Xrotation Yrotation
                  JOINT LeftHand
                  {
                    OFFSET 0 -25.65 2
                    CHANNELS 6 Xposition Yposition Zposition Zrotation Xrotation Yrotation
                    JOINT LeftHandThumb1
                    {
                      OFFSET -0.5 -1.5 2.65
                      CHANNELS 6 Xposition Yposition Zposition Zrotation Xrotation Yrotation
                      JOINT LeftHandThumb2
                      {
                        OFFSET 0 -3.8 3.7
                        CHANNELS 6 Xposition Yposition Zposition Zrotation Xrotation Yrotation
                        JOINT LeftHandThumb3
                        {
                          OFFSET 0 -3 2.7
                          CHANNELS 6 Xposition Yposition Zposition Zrotation Xrotation Yrotation
                          End Site
                          {
                            OFFSET 0 -2.3 1.8
                          }
                        }
                      }
                    }
                    JOINT LeftHandIndex
                    {
                      OFFSET 0 -1.9 1.6
                      CHANNELS 6 Xposition Yposition Zposition Zrotation Xrotation Yrotation
                      JOINT LeftHandIndex1
                      {
                        OFFSET 0 -8.3 1.9
                        CHANNELS 6 Xposition Yposition Zposition Zrotation Xrotation Yrotation
                        JOINT LeftHandIndex2
                        {
                          OFFSET 0 -4.5 0
                          CHANNELS 6 Xposition Yposition Zposition Zrotation Xrotation Yrotation
                          JOINT LeftHandIndex3
                          {
                            OFFSET 0 -3.4 0
                            CHANNELS 6 Xposition Yposition Zposition Zrotation Xrotation Yrotation
                            End Site
                            {
                              OFFSET 0 -2.6 0
                            }
                          }
                        }
                      }
                    }
                    JOINT LeftHandMiddle
                    {
                      OFFSET -0.25 -2.2 0.4
                      CHANNELS 6 Xposition Yposition Zposition Zrotation Xrotation Yrotation
                      JOINT LeftHandMiddle1
                      {
                        OFFSET 0 -8.3 1
                        CHANNELS 6 Xposition Yposition Zposition Zrotation Xrotation Yrotation
                        JOINT LeftHandMiddle2
                        {
                          OFFSET 0 -4.65 0
                          CHANNELS 6 Xposition Yposition Zposition Zrotation Xrotation Yrotation
                          JOINT LeftHandMiddle3
                          {
                            OFFSET 0 -3.3 0
                            CHANNELS 6 Xposition Yposition Zposition Zrotation Xrotation Yrotation
                            End Site
                            {
                              OFFSET 0 -2.7 0
                            }
                          }
                        }
                      }
                    }
                    JOINT LeftHandRing
                    {
                      OFFSET -0.5 -2.15 -0.8
                      CHANNELS 6 Xposition Yposition Zposition Zrotation Xrotation Yrotation
                      JOINT LeftHandRing1
                      {
                        OFFSET 0 -7.75 -0.2
                        CHANNELS 6 Xposition Yposition Zposition Zrotation Xrotation Yrotation
                        JOINT LeftHandRing2
                        {
                          OFFSET 0 -3.8 0
                          CHANNELS 6 Xposition Yposition Zposition Zrotation Xrotation Yrotation
                          JOINT LeftHandRing3
                          {
                            OFFSET 0 -3.4 0
                            CHANNELS 6 Xposition Yposition Zposition Zrotation Xrotation Yrotation
                            End Site
                            {
                              OFFSET 0 -2.6 0
                            }
                          }
                        }
                      }
                    }
                    JOINT LeftHandPinky
                    {
                      OFFSET -0.75 -1.75 -1.85
                      CHANNELS 6 Xposition Yposition Zposition Zrotation Xrotation Yrotation
                      JOINT LeftHandPinky1
                      {
                        OFFSET 0 -7.15 -1
                        CHANNELS 6 Xposition Yposition Zposition Zrotation Xrotation Yrotation
                        JOINT LeftHandPinky2
                        {
                          OFFSET 0 -3 0
                          CHANNELS 6 Xposition Yposition Zposition Zrotation Xrotation Yrotation
                          JOINT LeftHandPinky3
                          {
                            OFFSET 0 -2.35 0
                            CHANNELS 6 Xposition Yposition Zposition Zrotation Xrotation Yrotation
                            End Site
                            {
                              OFFSET 0 -2.1 0
                            }
                          }
                        }
                      }
                    }
                  }
                }
              }
            }
          }
          JOINT RightShoulder
          {
            OFFSET -5 17 0
            CHANNELS 6 Xposition Yposition Zposition Zrotation Xrotation Yrotation
            JOINT RightShoulder2
            {
              OFFSET -6.45 0 0
              CHANNELS 6 Xposition Yposition Zposition Zrotation Xrotation Yrotation
              JOINT RightArm
              {
                OFFSET -6.45 0 0
                CHANNELS 6 Xposition Yposition Zposition Zrotation Xrotation Yrotation
                JOINT RightForeArm
                {
                  OFFSET 0 -32.4 -2
                  CHANNELS 6 Xposition Yposition Zposition Zrotation Xrotation Yrotation
                  JOINT RightHand
                  {
                    OFFSET 0 -25.65 2
                    CHANNELS 6 Xposition Yposition Zposition Zrotation Xrotation Yrotation
                    JOINT RightHandThumb1
                    {
                      OFFSET 0.5 -1.5 2.65
                      CHANNELS 6 Xposition Yposition Zposition Zrotation Xrotation Yrotation
                      JOINT RightHandThumb2
                      {
                        OFFSET 0 -3.8 3.7
                        CHANNELS 6 Xposition Yposition Zposition Zrotation Xrotation Yrotation
                        JOINT RightHandThumb3
                        {
                          OFFSET 0 -3 2.7
                          CHANNELS 6 Xposition Yposition Zposition Zrotation Xrotation Yrotation
                          End Site
                          {
                            OFFSET 0 -2.3 1.8
                          }
                        }
                      }
                    }
                    JOINT RightHandIndex
                    {
                      OFFSET 0 -1.9 1.6
                      CHANNELS 6 Xposition Yposition Zposition Zrotation Xrotation Yrotation
                      JOINT RightHandIndex1
                      {
                        OFFSET 0 -8.3 1.9
                        CHANNELS 6 Xposition Yposition Zposition Zrotation Xrotation Yrotation
                        JOINT RightHandIndex2
                        {
                          OFFSET 0 -4.5 0
                          CHANNELS 6 Xposition Yposition Zposition Zrotation Xrotation Yrotation
                          JOINT RightHandIndex3
                          {
                            OFFSET 0 -3.4 0
                            CHANNELS 6 Xposition Yposition Zposition Zrotation Xrotation Yrotation
                            End Site
                            {
                              OFFSET 0 -2.6 0
                            }
                          }
                        }
                      }
                    }
                    JOINT RightHandMiddle
                    {
                      OFFSET 0.25 -2.2 0.4
                      CHANNELS 6 Xposition Yposition Zposition Zrotation Xrotation Yrotation
                      JOINT RightHandMiddle1
                      {
                        OFFSET 0 -8.3 1
                        CHANNELS 6 Xposition Yposition Zposition Zrotation Xrotation Yrotation
                        JOINT RightHandMiddle2
                        {
                          OFFSET 0 -4.65 0
                          CHANNELS 6 Xposition Yposition Zposition Zrotation Xrotation Yrotation
                          JOINT RightHandMiddle3
                          {
                            OFFSET 0 -3.3 0
                            CHANNELS 6 Xposition Yposition Zposition Zrotation Xrotation Yrotation
                            End Site
                            {
                              OFFSET 0 -2.7 0
                            }
                          }
                        }
                      }
                    }
                    JOINT RightHandRing
                    {
                      OFFSET 0.5 -2.15 -0.8
                      CHANNELS 6 Xposition Yposition Zposition Zrotation Xrotation Yrotation
                      JOINT RightHandRing1
                      {
                        OFFSET 0 -7.75 -0.2
                        CHANNELS 6 Xposition Yposition Zposition Zrotation Xrotation Yrotation
                        JOINT RightHandRing2
                        {
                          OFFSET 0 -3.8 0
                          CHANNELS 6 Xposition Yposition Zposition Zrotation Xrotation Yrotation
                          JOINT RightHandRing3
                          {
                            OFFSET 0 -3.4 0
                            CHANNELS 6 Xposition Yposition Zposition Zrotation Xrotation Yrotation
                            End Site
                            {
                              OFFSET 0 -2.6 0
                            }
                          }
                        }
                      }
                    }
                    JOINT RightHandPinky
                    {
                      OFFSET 0.75 -1.75 -1.85
                      CHANNELS 6 Xposition Yposition Zposition Zrotation Xrotation Yrotation
                      JOINT RightHandPinky1
                      {
                        OFFSET 0 -7.15 -1
                        CHANNELS 6 Xposition Yposition Zposition Zrotation Xrotation Yrotation
                        JOINT RightHandPinky2
                        {
                          OFFSET 0 -3 0
                          CHANNELS 6 Xposition Yposition Zposition Zrotation Xrotation Yrotation
                          JOINT RightHandPinky3
                          {
                            OFFSET 0 -2.35 0
                            CHANNELS 6 Xposition Yposition Zposition Zrotation Xrotation Yrotation
                            End Site
                            {
                              OFFSET 0 -2.1 0
                            }
                          }
                        }
                      }
                    }
                  }
                }
              }
            }
          }
        }
      }
    }
  }
  JOINT LeftUpLeg
  {
    OFFSET 8 0 0
    CHANNELS 6 Xposition Yposition Zposition Zrotation Xrotation Yrotation
    JOINT LeftLeg
    {
      OFFSET 0 -45 -1
      CHANNELS 6 Xposition Yposition Zposition Zrotation Xrotation Yrotation
      JOINT LeftFoot
      {
        OFFSET 0 -41 -2
        CHANNELS 6 Xposition Yposition Zposition Zrotation Xrotation Yrotation
        JOINT LeftToeBase
        {
          OFFSET 0 -7.5 12.5
          CHANNELS 6 Xposition Yposition Zposition Zrotation Xrotation Yrotation
          JOINT LeftFootToe
          {
            OFFSET 0 0 4
            CHANNELS 6 Xposition Yposition Zposition Zrotation Xrotation Yrotation
            End Site
            {
              OFFSET 0 0 0
            }
          }
        }
      }
    }
  }
  JOINT RightUpLeg
  {
    OFFSET -8 0 0
    CHANNELS 6 Xposition Yposition Zposition Zrotation Xrotation Yrotation
    JOINT RightLeg
    {
      OFFSET 0 -45 -1
      CHANNELS 6 Xposition Yposition Zposition Zrotation Xrotation Yrotation
      JOINT RightFoot
      {
        OFFSET 0 -41 -2
        CHANNELS 6 Xposition Yposition Zposition Zrotation Xrotation Yrotation
        JOINT RightToeBase
        {
          OFFSET 0 -7.5 12.5
          CHANNELS 6 Xposition Yposition Zposition Zrotation Xrotation Yrotation
          JOINT RightFootToe
          {
            OFFSET 0 0 4
            CHANNELS 6 Xposition Yposition Zposition Zrotation Xrotation Yrotation
            End Site
            {
              OFFSET 0 0 0
            }
          }
        }
      }
    }
  }
}
MOTION
Frames:	3
Frame Time:	0.0111111
-180.194 93.0413 1334.26 -2.69845 0.830231 131.071 0 8 0 -0.488048 18.5364 -7.92705 0 8 1.13687e-13 0.97651 5.46386 1.12078 0 8 0 0.501378 2.73134 0.571748 -2.27374e-13 8 -1.13687e-13 0.50078 2.72799 0.571063 1.13687e-13 17 1.13687e-13 1.64727 4.29229 -0.30492 3.41061e-13 10.8 0 3.90941 10.0075 -0.91193 5 17 -1.13687e-13 -2.0293 0.433166 -1.36907 6.45 0 0 0.978576 -0.427497 -1.45671 6.45 0 1.13687e-13 48.9984 -24.7183 30.408 3.41061e-13 -32.4 -2 -31.9981 -50.2442 -75.4146 5.68434e-14 -25.65 2 33.2615 -18.7475 -19.7102 -0.5 -1.5 2.65 -33.3849 -38.519 57.4238 2.27374e-13 -3.8 3.7 -0.0254281 22.6264 -0.00156841 -2.27374e-13 -3 2.7 -0.00297399 37.6246 0.0054714 0 -1.9 1.6 1.76556e-31 -3.18055e-15 3.18055e-15 5.68434e-14 -8.3 1.9 -35.3895 8.92892 3.27694 -2.27374e-13 -4.5 2.27374e-13 -87.6434 -0.00135954 -0.00358256 0 -3.4 0 -82.4995 0.00525266 0.000352637 -0.25 -2.2 0.4 1.76556e-31 -3.18055e-15 3.18055e-15 1.7053e-13 -8.3 1 -59.3802 9.30393 7.98604 0 -4.65 0 -56.5275 -0.00107883 0.00475689 -1.13687e-13 -3.3 0 -90.0002 -0.000516187 -3.45885e-14 -0.5 -2.15 -0.8 1.76556e-31 -3.18055e-15 3.18055e-15 -2.84217e-13 -7.75 -0.2 -68.3638 7.12163 9.98564 -2.27374e-13 -3.8 1.13687e-13 -59.7747 0.00125741 -0.00147006 1.13687e-13 -3.4 0 -90.0002 0.00281162 2.54444e-14 -0.75 -1.75 -1.85 1.76556e-31 -3.18055e-15 3.18055e-15 5.68434e-14 -7.15 -1 -81.7425 1.75599 11.5648 0 -3 0 -44.6113 -0.012846 -0.00306435 1.13687e-13 -2.35 0 -30.9505 0.00405492 -0.00228952 -5 17 0 -0.697376 -3.27845 -3.09989 -6.45 1.13687e-13 0 -1.1846 -0.0986678 1.13693 -6.45 -5.68434e-14 0 -2.49626 -18.9085 11.6 2.27374e-13 -32.4 -2 84.374 -59.8594 113.028 1.42109e-14 -25.65 2 -57.807 -14.6876 48.8473 0.5 -1.5 2.65 84.7241 30.6876 -120.585 2.27374e-13 -3.8 3.7 0.594794 21.3064 0.0285299 2.27374e-13 -3 2.7 0.0857279 56.4379 -0.0684645 0 -1.9 1.6 1.11319e-14 6.36111e-15 3.18055e-15 0 -8.3 1.9 25.9699 13.2954 -3.37324 -5.68434e-14 -4.5 0 -2.16017e-09 0.000497044 0.000249009 -5.68434e-14 -3.4 -2.27374e-13 5.90929e-08 -0.00765945 0.000442038 0.25 -2.2 0.4 1.11319e-14 6.36111e-15 3.18055e-15 0 -8.3 1 24.0946 14.044 -3.49132 -5.68434e-14 -4.65 -2.27374e-13 -9.5467e-13 4.48547e-06 1.21743e-05 0 -3.3 4.54747e-13 -1.02833e-12 4.86153e-06 1.21101e-05 0.5 -2.15 -0.8 1.11319e-14 6.36111e-15 3.18055e-15 -1.13687e-13 -7.75 -0.2 25.3414 13.5975 -3.93832 0 -3.8 0 0.955664 -0.000105883 0.00419647 -1.13687e-13 -3.4 -2.27374e-13 0.943246 0.000891835 0.0067084 0.75 -1.75 -1.85 1.11319e-14 6.36111e-15 3.18055e-15 0 -7.15 -1 21.5862 12.336 -3.22101 0 -3 0 17.0434 -0.000940788 0.0058549 -1.13687e-13 -2.35 -2.27374e-13 13.9189 0.00129213 0.00103918 8 0 0 -2.64978 -7.36207 -19.8437 0 -45 -1 0.00115045 4.43806 1.67675 -2.27374e-13 -41 -2 -1.72598 1.22374 13.1645 0 -7.5 12.5 8.09177e-19 0.000294304 -6.36111e-15 -1.13687e-13 0 4 -2.30219 -5.18138 44.7159 -8 -2.84217e-14 0 -7.53953 -10.4759 7.7916 1.13687e-13 -45 -1 0.00625714 7.95674 -0.438161 0 -41 -2 6.20764 0.329331 5.12834 1.13687e-13 -7.5 12.5 1.2424e-17 0 -6.36111e-15 0 0 4 -0.952986 1.08966 18.7381 
-180.203 93.0382 1334.26 -2.70599 0.840933 131.126 0 8 1.13687e-13 -0.508843 18.5372 -7.91426 1.13687e-13 8 0 0.995064 5.47229 1.09574 -1.13687e-13 8 0 0.510371 2.73541 0.559457 0 8 0 0.509757 2.73205 0.558806 1.13687e-13 17 1.13687e-13 1.65204 4.29181 -0.309151 2.27374e-13 10.8 1.13687e-13 3.92115 10.0086 -0.922458 5 17 -1.13687e-13 -1.98299 0.434289 -1.33326 6.45 0 1.13687e-13 0.978356 -0.427157 -1.46906 6.45 5.68434e-14 2.27374e-13 48.9984 -24.7183 30.408 2.27374e-13 -32.4 -2 -32.0189 -50.2498 -75.4146 -5.68434e-14 -25.65 2 33.3221 -18.7325 -19.6859 -0.5 -1.5 2.65 -33.4466 -38.5264 57.3748 2.27374e-13 -3.8 3.7 -0.0254283 22.6204 -0.00156834 0 -3 2.7 -0.00297358 37.6212 0.00547115 0 -1.9 1.6 3.18055e-15 -9.54166e-15 -0 0 -8.3 1.9 -35.4031 8.93139 3.27749 -2.13163e-13 -4.5 1.13687e-13 -87.6436 -0.00135954 -0.00358256 -1.13687e-13 -3.4 0 -82.4998 0.00525266 0.000352637 -0.25 -2.2 0.4 3.18055e-15 -9.54166e-15 -0 1.7053e-13 -8.3 1 -59.4233 9.30435 7.9933 5.68434e-14 -4.65 0 -56.5147 -0.00107883 0.00475689 -1.13687e-13 -3.3 0 -90.0002 -0.000516187 -3.77691e-14 -0.5 -2.15 -0.8 3.18055e-15 -9.54166e-15 -0 -2.84217e-13 -7.75 -0.2 -68.4217 7.11628 9.99541 0 -3.8 0 -59.697 0.00125741 -0.00147006 0 -3.4 1.13687e-13 -90.0002 0.00281162 -2.38542e-15 -0.75 -1.75 -1.85 3.18055e-15 -9.54166e-15 -0 0 -7.15 -1 -81.7503 1.75097 11.5636 -1.13687e-13 -3 -1.13687e-13 -44.6239 -0.012846 -0.00306435 -1.13687e-13 -2.35 1.13687e-13 -30.9585 0.00405492 -0.00228952 -5 17 1.13687e-13 -0.704604 -3.28323 -3.0916 -6.45 -5.68434e-14 -1.13687e-13 -1.18589 -0.0984501 1.13635 -6.45 -5.68434e-14 0 -2.47759 -18.9358 11.5895 2.27374e-13 -32.4 -2 84.23 -59.8 112.959 2.84217e-14 -25.65 2 -57.742 -14.7704 48.9454 0.5 -1.5 2.65 84.7663 30.5959 -120.823 0 -3.8 3.7 0.594769 21.3532 0.028539 0 -3 2.7 0.0857279 56.4379 -0.0684645 -1.13687e-13 -1.9 1.6 3.18055e-15 0 3.18055e-15 0 -8.3 1.9 25.8587 13.2584 -3.3486 0 -4.5 -2.27374e-13 -2.16017e-09 0.000497044 0.000249009 0 -3.4 -2.27374e-13 5.90929e-08 -0.00765945 0.000442038 0.25 -2.2 0.4 3.18055e-15 0 3.18055e-15 0 -8.3 1 24.0242 14.0425 -3.48093 -5.68434e-14 -4.65 -4.54747e-13 -9.5467e-13 4.48547e-06 1.21743e-05 -5.68434e-14 -3.3 2.27374e-13 -1.02674e-12 4.86153e-06 1.21101e-05 0.5 -2.15 -0.8 3.18055e-15 0 3.18055e-15 0 -7.75 -0.2 25.2903 13.6301 -3.93869 0 -3.8 2.27374e-13 0.928578 -0.000105883 0.00419647 -5.68434e-14 -3.4 2.27374e-13 0.916833 0.000891835 0.0067084 0.75 -1.75 -1.85 3.18055e-15 0 3.18055e-15 1.13687e-13 -7.15 -1 21.5727 12.4021 -3.234 0 -3 -2.27374e-13 16.9702 -0.000940788 0.0058549 -5.68434e-14 -2.35 -2.27374e-13 13.869 0.00129213 0.00103918 8 -1.42109e-14 1.13687e-13 -2.66873 -7.37549 -19.8395 0 -45 -1 0.00147135 4.44565 1.6691 0 -41 -2 -1.72761 1.23344 13.1187 1.13687e-13 -7.5 12.5 8.09177e-19 0.000294304 -6.36111e-15 0 1.38778e-17 4 -2.29942 -5.19933 44.7152 -8 -1.42109e-14 1.13687e-13 -7.56409 -10.482 7.74028 1.13687e-13 -45 -1 0.00646878 7.98023 -0.437707 1.13687e-13 -41 -2 6.20766 0.318319 5.15012 -1.13687e-13 -7.5 12.5 0 1.2424e-17 -0 1.13687e-13 0 4 -0.945079 1.08452 18.7383 
-180.211 93.0355 1334.27 -2.71313 0.851389 131.16 0 8 1.13687e-13 -0.534887 18.5383 -7.89437 1.13687e-13 8 -1.13687e-13 1.007 5.48017 1.08178 0 8 1.13687e-13 0.516188 2.73939 0.552653 -1.13687e-13 8 -1.13687e-13 0.515566 2.73602 0.551992 0 17 1.13687e-13 1.6616 4.29668 -0.316584 1.13687e-13 10.8 1.13687e-13 3.94464 10.0196 -0.941334 5 17 -1.13687e-13 -1.92824 0.435313 -1.31165 6.45 0 0 0.984196 -0.426739 -1.48881 6.45 0 2.27374e-13 48.9984 -24.7183 30.408 2.27374e-13 -32.4 -2 -32.0398 -50.2554 -75.4146 0 -25.65 2 33.3759 -18.7099 -19.6694 -0.5 -1.5 2.65 -33.5056 -38.5359 57.3291 2.27374e-13 -3.8 3.7 -0.0254283 22.6199 -0.00156833 0 -3 2.7 -0.00297227 37.6103 0.00547035 0 -1.9 1.6 1.59028e-15 -3.18055e-15 -3.18055e-15 0 -8.3 1.9 -35.4423 8.93344 3.27799 -2.27374e-13 -4.5 2.27374e-13 -87.6335 -0.00135954 -0.00358256 1.13687e-13 -3.4 0 -82.4716 0.00525266 0.000352637 -0.25 -2.2 0.4 1.59028e-15 -3.18055e-15 -3.18055e-15 1.7053e-13 -8.3 1 -59.4667 9.30472 8.00058 0 -4.65 1.13687e-13 -56.4977 -0.00107883 0.00475689 0 -3.3 0 -90.0002 -0.000516187 -3.65764e-14 -0.5 -2.15 -0.8 1.59028e-15 -3.18055e-15 -3.18055e-15 -2.27374e-13 -7.75 -0.2 -68.4714 7.11087 10.003 -1.13687e-13 -3.8 1.13687e-13 -59.6358 0.00125741 -0.00147006 1.13687e-13 -3.4 1.13687e-13 -90.0002 0.00281162 -5.56597e-15 -0.75 -1.75 -1.85 1.59028e-15 -3.18055e-15 -3.18055e-15 0 -7.15 -1 -81.762 1.74515 11.5625 -1.13687e-13 -3 0 -44.6224 -0.012846 -0.00306435 0 -2.35 0 -30.9576 0.00405492 -0.00228952 -5 17 1.13687e-13 -0.708484 -3.28393 -3.10126 -6.45 0 -1.13687e-13 -1.18749 -0.0982333 1.14388 -6.45 -5.68434e-14 0 -2.4386 -18.956 11.59 1.13687e-13 -32.4 -2 84.0787 -59.7588 112.859 0 -25.65 2 -57.7013 -14.8657 49.0224 0.5 -1.5 2.65 84.8073 30.5331 -121.001 0 -3.8 3.7 0.594752 21.3842 0.0285451 0 -3 2.7 0.0857279 56.4379 -0.0684645 -1.13687e-13 -1.9 1.6 0 0 -3.18055e-15 0 -8.3 1.9 25.772 13.2145 -3.32571 0 -4.5 -2.27374e-13 -2.16017e-09 0.000497044 0.000249009 -1.13687e-13 -3.4 -4.54747e-13 5.90929e-08 -0.00765945 0.000442038 0.25 -2.2 0.4 0 0 -3.18055e-15 0 -8.3 1 23.967 14.0333 -3.4706 0 -4.65 0 -9.5467e-13 4.48547e-06 1.21743e-05 5.68434e-14 -3.3 2.27374e-13 -1.02515e-12 4.86153e-06 1.21101e-05 0.5 -2.15 -0.8 0 0 -3.18055e-15 0 -7.75 -0.2 25.2429 13.6579 -3.93868 -5.68434e-14 -3.8 2.27374e-13 0.90349 -0.000105883 0.00419647 -5.68434e-14 -3.4 0 0.892383 0.000891835 0.0067084 0.75 -1.75 -1.85 0 0 -3.18055e-15 -1.13687e-13 -7.15 -1 21.5531 12.4652 -3.24522 -5.68434e-14 -3 0 16.9072 -0.000940788 0.0058549 -5.68434e-14 -2.35 -2.27374e-13 13.826 0.00129213 0.00103918 8 0 0 -2.68341 -7.38548 -19.8161 2.27374e-13 -45 -1 0.00190542 4.45098 1.66083 -2.27374e-13 -41 -2 -1.72885 1.24123 13.0783 0 -7.5 12.5 -1.63372e-20 0.000294304 3.18055e-15 -2.27374e-13 -1.38778e-17 4 -2.29576 -5.21587 44.7141 -8 0 1.13687e-13 -7.58403 -10.4872 7.71062 0 -45 -1 0.00663081 7.99774 -0.437221 0 -41 -2 6.20746 0.310007 5.16865 0 -7.5 12.5 1.2424e-17 3.72721e-17 -6.36111e-15 0 -2.22045e-16 4 -0.936479 1.08111 18.7384 
